<svg width="35" height="35" viewBox="0 0 35 35" fill="none" xmlns="http://www.w3.org/2000/svg">
<rect width="35" height="35" rx="17.5" fill="white"/>
<path d="M6.01562 8.9895V26.0115C6.01562 27.6183 7.28 28.8826 8.88672 28.8826H25.9088C26.6952 28.8826 27.4466 28.5064 27.9256 28.0284C28.4386 27.5154 28.7798 26.8658 28.7798 26.0115V8.9895C28.7798 7.38278 27.5155 6.11841 25.9088 6.11841H8.88672C8.0325 6.11841 7.38281 6.46075 6.86984 6.97263C6.39078 7.45169 6.01562 8.2031 6.01562 8.9895ZM9.09234 11.2448C9.09234 10.1511 9.98156 9.19403 11.0753 9.19403C12.203 9.19403 13.1261 10.1511 13.1261 11.2448C13.1261 12.3725 12.203 13.2617 11.0753 13.2617C9.98156 13.2617 9.09234 12.3725 9.09234 11.2448ZM14.595 25.2929V14.8684C14.595 14.6289 14.8345 14.4243 15.0052 14.4243H17.9102C18.3203 14.4243 18.3203 14.9034 18.3203 15.2108C19.1406 14.3904 20.2005 14.1848 21.2942 14.1848C23.9608 14.1848 25.6692 15.4492 25.6692 18.2525V25.294C25.6692 25.5336 25.4636 25.7381 25.2591 25.7381H22.2512C22.0117 25.7381 21.8411 25.4986 21.8411 25.294V18.9361C21.8411 17.8762 21.5337 17.2954 20.3372 17.2954C18.8333 17.2954 18.457 18.2864 18.457 19.6197V25.294C18.457 25.5336 18.2175 25.7381 17.978 25.7381H15.0041C14.8334 25.7381 14.5939 25.4986 14.5939 25.294L14.595 25.2929ZM9.16016 25.2929V14.8684C9.16016 14.6289 9.39969 14.4243 9.57031 14.4243H12.5442C12.8177 14.4243 12.9883 14.595 12.9883 14.8684V25.2929C12.9883 25.5325 12.7827 25.737 12.5442 25.737H9.57031C9.36469 25.737 9.16016 25.4975 9.16016 25.2929Z" fill="black"/>
</svg>
