<svg width="140" height="34" viewBox="0 0 140 34" fill="none" xmlns="http://www.w3.org/2000/svg">
<path d="M0.0131944 16.9291C0.0131944 12.6066 0.0454821 8.28253 0.000278989 3.95848C-0.0255513 1.50077 1.74544 0.109083 3.98622 0.156701C6.99707 0.221216 10.0111 0.127515 13.0268 0.182814C17.5778 0.265762 20.8793 2.35021 22.7988 6.21805C25.4415 11.5421 22.4759 18.0658 16.6318 20.0611C15.3629 20.4943 14.0278 20.6279 12.683 20.6341C11.1767 20.6341 9.67212 20.6341 8.16266 20.6341C6.83402 20.6341 7.0229 20.525 7.01644 21.7554C7.00353 24.5695 6.93734 27.3867 7.04389 30.2038C7.11008 31.9473 5.70717 33.7506 3.49222 33.7629C1.51781 33.7737 0.0180382 32.2775 0.0099662 30.2115C-0.00617776 25.7845 0.0099662 21.3591 0.0099662 16.9322L0.0131944 16.9291ZM7.00676 10.327C7.00676 11.2733 7.04389 12.221 6.99384 13.1642C6.95994 13.7986 7.09393 14.0536 7.85431 14.0244C9.65275 13.9599 11.4544 14.0029 13.2545 13.9983C13.4951 14.0178 13.7374 13.9986 13.9713 13.9414C15.7875 13.2993 17.016 12.0398 16.6931 9.66653C16.4881 8.13046 14.7946 6.77257 12.98 6.74799C11.2042 6.72495 9.42835 6.76796 7.65251 6.73263C7.07617 6.72188 6.98577 6.95075 6.99707 7.41158C7.02451 8.38391 7.00676 9.35471 7.00676 10.327Z" fill="#F5F5F5"/>
<path d="M50.6165 33.7416C43.5971 33.8537 38.0468 28.1534 37.9806 21.8892C37.9128 15.3302 43.5632 9.73891 50.5874 9.69897C57.7505 9.65596 63.2669 15.4546 63.3056 21.7065C63.3492 27.9168 57.7166 33.9428 50.6165 33.7416ZM56.2668 21.7418C56.2668 18.6881 53.8065 16.3287 50.6407 16.3456C49.1335 16.3445 47.6877 16.9132 46.6212 17.9265C45.5548 18.9398 44.955 20.3147 44.954 21.7487C44.9529 23.1827 45.5506 24.5584 46.6155 25.5731C47.6805 26.5879 49.1255 27.1585 50.6326 27.1595C53.7516 27.1764 56.3476 24.7064 56.262 21.7418H56.2668Z" fill="#F5F5F5"/>
<path d="M90.9924 25.5971C90.9924 27.1055 90.9843 28.6155 90.9924 30.1255C91.0037 31.5294 90.5081 32.6861 89.1455 33.3512C86.8095 34.4864 84.0392 33.1208 84.0085 30.2591C83.9778 27.445 83.9197 24.6279 84.0214 21.8107C84.1247 18.906 81.7613 16.8953 79.7433 16.4943C76.5694 15.8692 74.1268 17.2424 72.9628 19.8276C72.6819 20.442 72.6852 21.1225 72.6868 21.7892C72.6868 24.528 72.7061 27.2653 72.6868 30.0026C72.6771 31.5709 72.1088 32.8812 70.4734 33.4956C68.2133 34.3451 65.9241 32.958 65.7917 30.9734C65.5301 27.2207 65.4042 23.4466 65.8546 19.714C66.255 16.3791 68.2149 13.7663 71.1289 11.8477C73.5408 10.264 76.2513 9.49753 79.1653 9.71411C85.5067 10.1872 90.7163 14.903 90.9504 20.9858C91.0118 22.5219 90.9601 24.058 90.9601 25.594L90.9924 25.5971Z" fill="#F5F5F5"/>
<path d="M94.8295 23.8016C94.8295 21.5512 94.8085 19.2993 94.844 17.0428C94.8521 16.4284 94.6616 16.2272 94.0239 16.2671C92.3885 16.3716 90.9565 15.9676 90.1994 14.4546C88.8901 11.8693 91.189 9.62821 93.1053 9.65894C94.8182 9.69734 94.7988 9.63129 94.8295 8.00766C94.8505 6.90168 94.6164 5.76653 95.3913 4.74965C96.2437 3.62831 97.7773 2.99699 99.1044 3.32571C99.8132 3.48603 100.451 3.85388 100.929 4.37745C101.407 4.90102 101.699 5.55393 101.767 6.24424C101.826 6.90476 101.81 7.57141 101.815 8.24114C101.823 9.66815 101.815 9.68658 103.289 9.68658C103.77 9.6746 104.247 9.76604 104.685 9.95408C105.123 10.1421 105.511 10.4219 105.82 10.7726C106.778 11.814 107.012 12.9968 106.435 14.2549C105.859 15.5129 104.839 16.2041 103.386 16.2763C101.817 16.3547 101.817 16.3516 101.815 17.8477C101.815 22.0166 101.815 26.1855 101.815 30.3544C101.815 31.8199 101.097 32.9059 99.6872 33.4711C98.457 33.9658 97.2172 33.8705 96.1533 33.0303C95.3461 32.3974 94.8166 31.6094 94.823 30.5541C94.8375 28.3038 94.823 26.0519 94.823 23.7954L94.8295 23.8016Z" fill="#F5F5F5"/>
<path d="M130.551 21.6785C130.603 27.19 126.953 31.7613 121.64 33.282C114.987 35.1852 108.263 31.9702 105.937 25.6877C104.721 22.4036 105.044 19.164 106.76 16.0719C107.141 15.3852 107.43 15.3776 107.89 16.0335C110.53 19.7738 113.232 23.4742 115.755 27.2837C116.647 28.6277 118.913 28.9396 120.043 27.4849C122.742 24.0134 125.602 20.654 128.394 17.2485C129.024 16.4805 129.324 16.5127 129.701 17.4144C130.266 18.7716 130.555 20.2187 130.551 21.6785Z" fill="#F5F5F5"/>
<path d="M23.3123 25.5097C23.3672 23.6234 23.1509 21.7356 23.4463 19.8447C24.0114 16.2226 26.0471 13.5468 29.1839 11.5821C31.1954 10.3226 33.4749 9.80183 35.8707 9.68663C37.561 9.60675 38.9962 10.9001 39.2965 12.0691C39.7436 13.8048 38.9736 15.3885 37.3592 16.0782C36.6424 16.3854 35.8368 16.3547 35.0667 16.4346C32.4821 16.7034 30.2704 19.0106 30.2542 21.4944C30.2413 24.4898 30.2688 27.4851 30.2413 30.4805C30.23 31.7492 29.6295 32.76 28.4316 33.3483C26.0665 34.5096 23.4544 33.0795 23.3188 30.6525C23.2284 28.9428 23.3123 27.224 23.3123 25.5097Z" fill="#F5F5F5"/>
<path d="M139.994 12.4407C139.994 15.3854 140.007 18.3285 139.994 21.2731C139.985 23.0703 139.147 24.1702 137.618 24.8061C135.561 25.6709 132.918 23.9398 132.936 21.734C132.957 17.5866 132.936 13.4392 132.936 9.29177C132.936 7.37372 132.936 5.45414 132.936 3.53303C132.936 1.4286 134.368 0.00773726 136.488 5.6893e-05C138.465 -0.0106956 139.983 1.50387 139.993 3.53303C140.007 6.50226 139.993 9.47149 139.993 12.4423L139.994 12.4407Z" fill="#F5F5F5"/>
<path d="M117.974 9.69735C121.35 9.82638 124.307 10.9354 126.784 13.1566C127.245 13.5698 127.215 13.9108 126.726 14.2795C123.752 16.5129 120.79 18.7602 117.814 20.9921C117.034 21.5773 116.408 21.5528 115.489 20.8876C113.136 19.1826 110.79 17.4673 108.454 15.7418C107.382 14.9538 107.379 14.9338 108.301 13.94C110.272 11.811 112.671 10.407 115.661 9.96156C116.429 9.85096 117.176 9.61748 117.974 9.69735Z" fill="#F5F5F5"/>
<path d="M132.929 30.4157C132.938 29.5444 133.306 28.7112 133.954 28.0959C134.603 27.4806 135.48 27.1326 136.395 27.127C138.728 27.1178 139.947 28.8981 139.976 30.4111C140.015 32.2221 138.341 33.7644 136.437 33.7628C135.506 33.7612 134.613 33.4077 133.955 32.7801C133.297 32.1525 132.928 31.3021 132.929 30.4157Z" fill="#F5F5F5"/>
</svg>
